<?xml version="1.0" encoding="utf-8"?>
<!-- Generator: Adobe Illustrator 27.5.0, SVG Export Plug-In . SVG Version: 6.00 Build 0)  -->
<svg version="1.1" id="Layer_1" xmlns="http://www.w3.org/2000/svg" xmlns:xlink="http://www.w3.org/1999/xlink" x="0px" y="0px"
	 viewBox="0 0 384 512" style="enable-background:new 0 0 384 512;" xml:space="preserve">
<style type="text/css">
	.st0{fill:url(#SVGID_1_);}
	.st1{fill:url(#SVGID_00000046316727602802401080000016538194678386155419_);}
</style>
<linearGradient id="SVGID_1_" gradientUnits="userSpaceOnUse" x1="192" y1="352" x2="368" y2="352">
	<stop  offset="0" style="stop-color:#231F20"/>
	<stop  offset="1" style="stop-color:#FFFFFF;stop-opacity:0"/>
</linearGradient>
<path class="st0" d="M344,192c-13.3,0-24,10.7-24,24v40c0,70.7-57.3,128-128,128v128h72c13.3,0,24-10.7,24-24s-10.7-24-24-24h-48
	v-33.6c85.8-11.7,152-85.3,152-174.4v-40C368,202.7,357.3,192,344,192z"/>
<linearGradient id="SVGID_00000137128954640899619270000000328382603082914193_" gradientUnits="userSpaceOnUse" x1="192" y1="176" x2="288" y2="176">
	<stop  offset="0" style="stop-color:#231F20"/>
	<stop  offset="1" style="stop-color:#FFFFFF;stop-opacity:0"/>
</linearGradient>
<path style="fill:url(#SVGID_00000137128954640899619270000000328382603082914193_);" d="M192,0v352c53,0,96-43,96-96V96
	C288,43,245,0,192,0z"/>
<path d="M64,256v-40c0-13.3-10.7-24-24-24s-24,10.7-24,24v40c0,89.1,66.2,162.7,152,174.4V464h-48c-13.3,0-24,10.7-24,24
	s10.7,24,24,24h72V384C121.3,384,64,326.7,64,256z"/>
<path d="M192,352V0c-53,0-96,43-96,96v160C96,309,139,352,192,352z"/>
</svg>
